<svg xmlns="http://www.w3.org/2000/svg" width="132" height="56"><path fill-rule="evenodd" fill="#444" d="M118.461 44.222c-24.517 10.725-95.393 1.31-97.721 1.172h-.004c-2.18-.129-4.395-.255-4.802-.255-1.082 0-1.849.349-2.3 1.046-.271.395-.406.773-.406 1.137 0 .879.766 1.817 2.3 2.818.842.545 1.264 1.393 1.264 2.545 0 .909-.339 1.689-1.015 2.34-.677.652-1.497.978-2.459.978-.873 0-1.685-.273-2.436-.818-1.866-1.334-2.798-3.197-2.798-5.591 0-1.697.586-3.363 1.759-4.999.752-1.062 1.896-1.925 3.43-2.591 1.413-.607 2.827-.91 4.24-.91.591 0 1.142.028 1.668.07l-.001-.003c18.282.107 77.642 4.558 92.536 1.665 9.084-1.764 13.676-5.753 15.984-9.064-3.529 3.063-6.78 4.613-9.745 4.613-.993 0-1.865-.213-2.617-.637-1.022-.575-1.82-1.469-2.391-2.681-.482-1.001-.663-1.848-.542-2.546.12-.756.211-1.256.271-1.499.127-.339.331-.655.605-.949-.462.426-4.567 4.412-7.005 6.402-1.113.881-2.106 1.319-2.978 1.319-.662 0-1.354-.227-2.075-.682-.873-.575-1.475-.863-1.805-.863-.451 0-1.098.303-1.941.909-.601.424-1.098.636-1.488.636-.752 0-1.099-.516-1.038-1.545.09-1.334 1.534-3.621 4.331-6.863 2.136-2.455 4.271-4.591 6.407-6.41-.932.031-1.617-.151-2.052-.545-.437-.393-.866-.591-1.287-.591-.601 0-1.218.349-1.85 1.046-1.482 1.609-7.141 8.372-8.977 10.09-3.881 3.607-7.431 5.409-10.648 5.409-.993 0-1.866-.213-2.617-.637-1.023-.575-1.821-1.469-2.392-2.681-.481-1.001-.662-1.848-.541-2.546.119-.756.21-1.256.271-1.499.126-.339.33-.655.604-.949-.192.176-1.84 1.922-2.888 2.903-3.881 3.607-7.431 5.409-10.649 5.409-.992 0-1.865-.213-2.616-.637-1.023-.575-1.821-1.469-2.392-2.681-.482-1.001-.662-1.848-.542-2.546.12-.756.211-1.256.272-1.499.126-.339.33-.655.604-.949-.116.106-.224.2-.328.285-2.785 3.31-5.638 5.689-8.561 7.118-.843.424-1.655.636-2.437.636-1.144 0-2.053-.41-2.73-1.228-.676-.818-.97-1.665-.879-2.544.209-1.91 1.744-4.666 4.601-8.272 1.113-1.394 1.67-2.485 1.67-3.273 0-.757-.647-1.137-1.94-1.137-3.249 4.273-5.565 7.091-6.948 8.454-.068.068-.136.108-.203.16a25.735 25.735 0 01-.63 1.523c-.812 1.848-2.271 3.378-4.376 4.59-2.106 1.212-4.212 1.818-6.317 1.818-1.564 0-2.873-.378-3.925-1.136-1.926-1.394-3.099-2.97-3.52-4.727-2.286 2.848-4.647 4.727-7.083 5.636-1.294.484-2.949.727-4.963.727-1.415 0-2.828-.303-4.242-.909-1.534-.666-2.677-1.53-3.429-2.591C.576 33.557-.01 31.89-.01 30.194c0-2.394.932-4.257 2.797-5.591.752-.545 1.564-.818 2.436-.818.963 0 1.783.326 2.46.977.676.652 1.015 1.432 1.015 2.341 0 1.151-.422 1.999-1.264 2.545-1.534 1-2.301 1.939-2.301 2.818 0 .363.136.743.407 1.136.451.697 1.218 1.046 2.3 1.046.842 0 1.73-.257 2.663-.773 1.744-.97 3.278-2.348 4.601-4.136.813-1.121 2.121-3.318 3.926-6.591 2.135-3.848 4.075-7.105 5.82-9.772 2.256-3.484 4.481-6.302 6.678-8.454a12.15 12.15 0 00-2.572-.272c-2.015 0-3.986.425-5.911 1.272-2.978 1.273-5.174 2.697-6.587 4.273-1.234 1.363-2.046 3.045-2.436 5.045-.09.454-.136.894-.136 1.318 0 1.939.903 3.167 2.707 3.681.963.273 1.444.728 1.444 1.364 0 .909-.436 1.516-1.308 1.818a2.286 2.286 0 01-.812.136c-1.234 0-2.272-.575-3.114-1.727-.962-1.332-1.443-2.832-1.443-4.499 0-.909.285-2.47.857-4.682.571-2.12 2.346-4.318 5.324-6.59 3.639-2.728 7.58-4.091 11.821-4.091 1.955 0 3.7.122 5.234.364C36.821 1.09 38.16.408 38.611.286c1.143-.333 1.88-.378 2.211-.136.18.121.271.273.271.455 0 .363-.422.818-1.264 1.363-.331.213-.932.607-1.804 1.182 2.075.758 3.849 2.212 5.324 4.363.571.818.857 1.924.857 3.318 0 2.061-.436 3.652-1.308 4.773-1.113 1.424-2.543 2.576-4.287 3.454 1.023 1 1.715 1.925 2.076 2.772.421.971.632 2.046.632 3.228 0 .384-.029.782-.072 1.187.23-.278.443-.539.633-.779 1.234-1.575 2.286-3.105 3.158-4.59-.692-.575-1.037-1.287-1.037-2.136 0-.697.225-1.5.677-2.409.751-1.455 1.85-2.182 3.293-2.182.542 0 1 .152 1.376.455.376.303.565.772.565 1.409 0 .636-.181 1.333-.542 2.09.781.455 1.955.425 3.519-.09 1.324-.455 2.256-.682 2.797-.682.812 0 1.293.348 1.444 1.045.06.243.091.485.091.727 0 .516-.152 1.084-.451 1.705a68.03 68.03 0 01-.903 1.795 378.483 378.483 0 00-3.338 7.363c-.362 1-.362 1.607 0 1.819.511 0 .962-.258 1.353-.773.54-.498 4.536-4.581 5.645-5.909 1.67-2 3.377-3.651 5.122-4.954 2.465-1.879 4.661-2.818 6.587-2.818 1.263 0 2.271.379 3.023 1.136.842.849 1.263 1.758 1.263 2.727 0 1.455-.902 3.152-2.707 5.091-2.497 2.666-5.369 4.515-8.618 5.545-.151 1.666.452 2.515 1.805 2.545.842.03 1.91-.333 3.203-1.091 1.174-.727 6.864-6.181 8.534-8.181 1.669-2 3.376-3.651 5.121-4.954 2.466-1.879 4.661-2.818 6.587-2.818 1.263 0 2.271.379 3.023 1.136.842.849 1.263 1.758 1.263 2.727 0 1.455-.902 3.152-2.707 5.091-2.497 2.666-5.369 4.515-8.618 5.545-.15 1.666.452 2.515 1.805 2.545.842.03 1.91-.333 3.204-1.091a15.634 15.634 0 003.068-2.455c1.143-1.241 5.203-5.574 8.752-9.635 1.654-1.909 2.632-3 2.933-3.272.782-.667 1.654-1.046 2.617-1.137.842-.06 1.714.167 2.616.682 1.144.697 1.76 1.061 1.851 1.091.48.121.826.182 1.038.182.6 0 1.398-.409 2.391-1.227.3-.243.616-.364.947-.364.661 0 .993.288.993.864 0 .424-.242.818-.722 1.181a105.118 105.118 0 00-6.362 5.364c-1.805 1.666-2.865 2.727-3.181 3.181-.315.455-.473.849-.473 1.182a1 1 0 00.316.727c.42.091 1.112.318 2.075.682.12.061.466.273 1.038.636.361.243.722.349 1.082.318.437-.029 3.009-2.487 3.039-2.514.026-.026 2.009-2.019 3.384-3.667 1.67-2 3.377-3.651 5.122-4.954 2.465-1.879 4.661-2.818 6.586-2.818 1.264 0 2.271.379 3.023 1.136.843.849 1.264 1.758 1.264 2.727 0 1.455-.902 3.152-2.707 5.091-2.497 2.666-5.37 4.515-8.618 5.545-.151 1.666.452 2.515 1.805 2.545.842.03 1.91-.333 3.203-1.091a15.634 15.634 0 003.068-2.455c1.143-1.241 1.918-1.991 2.324-2.25.406-.256.654-.385.745-.385.239 0 .541.121.902.364a.565.565 0 01.191.301c1.265 2.135-1.529 10.227-13.266 15.363zM36.175 6.65a13.813 13.813 0 00-1.353-.728 26.847 26.847 0 00-2.031 2.319c-.963 1.212-1.94 3.378-2.933 6.499-1.384 4.152-2.511 7.181-3.384 9.09 1.113-.515 1.956-.848 2.527-1 .271-.06.511-.091.722-.091.661 0 .993.318.993.955 0 .636-.482 1.045-1.444 1.227-1.173.212-2.512 1.031-4.016 2.455-.932.878-1.398 1.985-1.398 3.317 0 .728.21 1.289.631 1.682.962.909 1.955 1.364 2.978 1.364 1.143 0 2.346-.652 3.609-1.954.632-.668 1.263-1.667 1.896-3.001.751-1.696 1.127-3.272 1.127-4.726 0-.334-.03-.667-.089-1.001-.212-1.514-.678-2.454-1.399-2.818 0-.029-.678-.151-2.031-.363-.842 0-1.263-.469-1.263-1.409 0-.969.601-1.56 1.805-1.772a93.286 93.286 0 002.888-.137c1.924-.242 3.263-1.879 4.015-4.909.09-.364.135-.742.135-1.136 0-1.727-.662-3.015-1.985-3.863zm31.091 20.589c.48 0 1.503-.833 3.068-2.5.932-1 1.398-2.045 1.398-3.136 0-.484-.18-.727-.541-.727-.572 0-1.595.985-3.068 2.954-1.024 1.243-1.535 2.182-1.535 2.818 0 .394.226.591.678.591zm18.211 0c.48 0 1.504-.833 3.068-2.5.932-1 1.399-2.045 1.399-3.136 0-.484-.181-.727-.542-.727-.572 0-1.594.985-3.068 2.954-1.023 1.243-1.534 2.182-1.534 2.818 0 .394.225.591.677.591zm37.081 0c.48 0 1.503-.833 3.067-2.5.932-1 1.399-2.045 1.399-3.136 0-.484-.18-.727-.542-.727-.571 0-1.594.985-3.067 2.954-1.024 1.243-1.535 2.182-1.535 2.818 0 .394.226.591.678.591z"/></svg>